<svg width="71" height="71" viewBox="0 0 71 71" fill="none" xmlns="http://www.w3.org/2000/svg">
<g clip-path="url(#clip0_549_923)" filter="url(#filter0_d_549_923)">
<path d="M11.1128 30.4839C9.43216 30.4839 8.06445 31.8516 8.06445 33.5323C8.06445 35.2129 9.43216 36.5807 11.1128 36.5807C12.7935 36.5807 14.1612 35.2129 14.1612 33.5323C14.1612 31.8516 12.7935 30.4839 11.1128 30.4839ZM11.1128 34.5484C10.553 34.5484 10.0967 34.0932 10.0967 33.5323C10.0967 32.9714 10.553 32.5161 11.1128 32.5161C11.6727 32.5161 12.129 32.9714 12.129 33.5323C12.129 34.0932 11.6727 34.5484 11.1128 34.5484Z" fill="#02133C"/>
<path d="M63.9516 0H60.9032H40.5806H25.7868C24.473 0 23.3105 0.83729 22.8949 2.0851L22.5738 3.04839H19.2419C17.5613 3.04839 16.1935 4.4161 16.1935 6.09677V7.41266C13.259 8.28958 11.1129 11.0098 11.1129 14.2258C11.1129 16.3485 12.0518 18.2517 13.5313 19.5554C11.2582 21.2849 9.69744 23.8414 9.23713 26.6785C6.22329 27.5046 4 30.2603 4 33.5323C4 37.4535 7.19065 40.6452 11.1129 40.6452H12.129V38.6129H11.1129C8.31144 38.6129 6.03226 36.3337 6.03226 33.5323C6.03226 30.7308 8.31144 28.4516 11.1129 28.4516C12.9206 28.4516 14.6064 29.4251 15.5138 30.9909L17.2717 29.9728C17.169 29.796 17.0501 29.6334 16.9343 29.4677H18.2258V21.3387C22.1481 21.3387 25.3387 18.1481 25.3387 14.2258C25.3387 10.3035 22.1481 7.1129 18.2258 7.1129V6.09677C18.2258 5.53689 18.682 5.08065 19.2419 5.08065H24.0391L24.8235 2.72729C24.9617 2.31169 25.3489 2.03226 25.7868 2.03226H26.4575C26.93 4.34802 28.9825 6.09677 31.4355 6.09677C33.8884 6.09677 35.941 4.34802 36.4135 2.03226H40.5806V13.2361C39.7291 12.5909 38.6805 12.1935 37.5323 12.1935C34.7308 12.1935 32.4516 14.4727 32.4516 17.2742C32.4516 20.0757 34.7308 22.3548 37.5323 22.3548C39.9852 22.3548 42.0378 20.6061 42.5103 18.2903H58.871V29.4677H45.6613V31.5H60.9032V18.2903V16.2581H63.9516C65.6323 16.2581 67 14.8904 67 13.2097V3.04839C67 1.36771 65.6323 0 63.9516 0ZM16.1935 28.5614C14.9224 27.2709 13.1858 26.4945 11.3415 26.4346C11.876 24.0934 13.3331 22.0287 15.3654 20.7331C15.6326 20.851 15.91 20.9475 16.1935 21.0329V28.5614V28.5614ZM23.3065 14.2258C23.3065 17.0273 21.0273 19.3065 18.2258 19.3065C17.1833 19.3065 16.2149 18.9894 15.4071 18.4488L15.3796 18.3919C15.3695 18.397 15.3613 18.4031 15.3512 18.4082C14.0211 17.4906 13.1452 15.9603 13.1452 14.2258C13.1452 11.4243 15.4243 9.14516 18.2258 9.14516C21.0273 9.14516 23.3065 11.4243 23.3065 14.2258ZM31.4355 4.06452C30.1125 4.06452 28.9947 3.21198 28.5741 2.03226H34.2959C33.8762 3.21198 32.7585 4.06452 31.4355 4.06452ZM37.5323 20.3226C35.8516 20.3226 34.4839 18.9549 34.4839 17.2742C34.4839 15.5935 35.8516 14.2258 37.5323 14.2258C39.2129 14.2258 40.5806 15.5935 40.5806 17.2742C40.5806 18.9549 39.2129 20.3226 37.5323 20.3226ZM52.7742 16.2581H42.6129V2.03226H45.6877C45.0425 2.88377 44.6452 3.93242 44.6452 5.08065C44.6452 7.88211 46.9243 10.1613 49.7258 10.1613C50.874 10.1613 51.9227 9.76398 52.7742 9.11874V16.2581ZM49.7258 8.12903C48.0451 8.12903 46.6774 6.76132 46.6774 5.08065C46.6774 3.39997 48.0451 2.03226 49.7258 2.03226C51.4065 2.03226 52.7742 3.39997 52.7742 5.08065C52.7742 6.76132 51.4065 8.12903 49.7258 8.12903ZM64.9677 13.2097C64.9677 13.7696 64.5115 14.2258 63.9516 14.2258H60.9032V12.1935H58.871V14.2258V16.2581H54.8065V5.08065C54.8065 3.93242 54.4091 2.88377 53.7639 2.03226H58.871V10.1613H60.9032V2.03226H63.9516C64.5115 2.03226 64.9677 2.4885 64.9677 3.04839V13.2097Z" fill="#02133C"/>
<path d="M15.1775 14.2259C15.1775 15.9066 16.5452 17.2743 18.2259 17.2743C19.9066 17.2743 21.2743 15.9066 21.2743 14.2259C21.2743 12.5452 19.9066 11.1775 18.2259 11.1775C16.5452 11.1775 15.1775 12.5452 15.1775 14.2259ZM19.242 14.2259C19.242 14.7858 18.7858 15.242 18.2259 15.242C17.666 15.242 17.2097 14.7858 17.2097 14.2259C17.2097 13.666 17.666 13.2097 18.2259 13.2097C18.7858 13.2097 19.242 13.666 19.242 14.2259Z" fill="#02133C"/>
<path d="M35.5001 62.9999H27.3711V58.4222C25.9028 58.0442 24.4985 57.461 23.1816 56.6806L19.9402 59.921L14.1919 54.1728L17.4323 50.9313C16.652 49.6144 16.0687 48.2101 15.6907 46.7418H11.113V38.6128H15.6907C16.0687 37.1445 16.652 35.7402 17.4323 34.4233L14.1919 31.1819L19.9402 25.4336L23.1816 28.674C24.4985 27.8937 25.9028 27.3104 27.3711 26.9324V22.3547H35.5001V26.9324C36.9684 27.3104 38.3727 27.8937 39.6896 28.674L42.9311 25.4336L48.6793 31.1819L45.4389 34.4233C46.2193 35.7402 46.8025 37.1445 47.1805 38.6128H51.7582V46.7418H47.1805C46.8025 48.2101 46.2193 49.6144 45.4389 50.9313L48.6793 54.1728L42.9311 59.921L39.6896 56.6806C38.3727 57.461 36.9684 58.0442 35.5001 58.4222V62.9999Z" fill="#C40B0B"/>
<path d="M31.4357 52.8387C25.8328 52.8387 21.2744 48.2803 21.2744 42.6774C21.2744 37.0745 25.8328 32.5161 31.4357 32.5161C37.0386 32.5161 41.597 37.0745 41.597 42.6774C41.597 45.3773 40.5494 47.9196 38.6462 49.836L37.2043 48.4053C38.7264 46.871 39.5647 44.8377 39.5647 42.6774C39.5647 38.1953 35.9178 34.5484 31.4357 34.5484C26.9536 34.5484 23.3067 38.1953 23.3067 42.6774C23.3067 47.1595 26.9536 50.8064 31.4357 50.8064C32.9782 50.8064 34.479 50.3725 35.7756 49.5525L36.8618 51.2688C35.2401 52.2961 33.3633 52.8387 31.4357 52.8387Z" fill="#02133C"/>
<path d="M31.4356 48.7741C28.0733 48.7741 25.3389 46.0397 25.3389 42.6773C25.3389 39.315 28.0733 36.5806 31.4356 36.5806C34.798 36.5806 37.5324 39.315 37.5324 42.6773C37.5324 46.0397 34.798 48.7741 31.4356 48.7741ZM31.4356 38.6128C29.1941 38.6128 27.3711 40.4358 27.3711 42.6773C27.3711 44.9189 29.1941 46.7419 31.4356 46.7419C33.6772 46.7419 35.5002 44.9189 35.5002 42.6773C35.5002 40.4358 33.6772 38.6128 31.4356 38.6128Z" fill="#02133C"/>
</g>
<defs>
<filter id="filter0_d_549_923" x="0" y="0" width="71" height="71" filterUnits="userSpaceOnUse" color-interpolation-filters="sRGB">
<feFlood flood-opacity="0" result="BackgroundImageFix"/>
<feColorMatrix in="SourceAlpha" type="matrix" values="0 0 0 0 0 0 0 0 0 0 0 0 0 0 0 0 0 0 127 0" result="hardAlpha"/>
<feOffset dy="4"/>
<feGaussianBlur stdDeviation="2"/>
<feComposite in2="hardAlpha" operator="out"/>
<feColorMatrix type="matrix" values="0 0 0 0 0 0 0 0 0 0 0 0 0 0 0 0 0 0 0.25 0"/>
<feBlend mode="normal" in2="BackgroundImageFix" result="effect1_dropShadow_549_923"/>
<feBlend mode="normal" in="SourceGraphic" in2="effect1_dropShadow_549_923" result="shape"/>
</filter>
<clipPath id="clip0_549_923">
<rect width="63" height="63" fill="white" transform="translate(4)"/>
</clipPath>
</defs>
</svg>
